# xmcd
#
# Track frame offsets:
#	150
#	10860
#	25976
#	46111
#	64164
#	77371
#	100850
#	115640
#	131841
#	160859
#	178865
#	189859
#	201384
#	212172
#	230260
#	242219
#	255564
#	274723
#	289670
#	316797
#	336932
#
# Disc length: 4745 seconds
#
# Revision: 1
# Processed by: cddbd v1.5.1PL0 Copyright (c) Steve Scherf et al.
# Submitted via: audiograbber 1.83.01
#
DISCID=20128715
DTITLE=Cletus D Judd - Greatest Hits
DYEAR=1900
DGENRE=
TTITLE0=Shade Tree Mechanic
TTITLE1=Cletus Went Down to Florida
TTITLE2=Plowboy
TTITLE3=My Cellmate Thinks I am Sexy
TTITLE4=(1)
TTITLE5=Motel Californie
TTITLE6=Mama, She's Lazy
TTITLE7=I Can Smell Your Breath
TTITLE8=Gin and Juice
TTITLE9=That Squirrel Had To DIE
TTITLE10=SKOAL
TTITLE11=Wife Naggin'
TTITLE12=She's Inflatable
TTITLE13=Please Take The Girl
TTITLE14=More Beaver
TTITLE15=1-900-Sheila
TTITLE16=WILLIE'S GOT A BIG DECK
TTITLE17=You Have No Right To Remain Violent
TTITLE18=To Get Sunburned
TTITLE19=Plowboy
TTITLE20=It's A Great Day To Be A Guy
EXTD=
EXTT0=
EXTT1=
EXTT2=
EXTT3=
EXTT4=
EXTT5=
EXTT6=
EXTT7=
EXTT8=
EXTT9=
EXTT10=
EXTT11=
EXTT12=
EXTT13=
EXTT14=
EXTT15=
EXTT16=
EXTT17=
EXTT18=
EXTT19=
EXTT20=
PLAYORDER=
